<svg width="13" height="23" viewBox="0 0 13 23" fill="none" xmlns="http://www.w3.org/2000/svg">
<path fill-rule="evenodd" clip-rule="evenodd" d="M6.49982 11.5849C9.69434 11.5849 12.2922 9.04748 12.2922 5.92761C12.2922 2.80611 9.69461 0.267578 6.49982 0.267578C3.30558 0.267578 0.707429 2.80638 0.707429 5.92761C0.707429 9.04748 3.30558 11.5849 6.49982 11.5849ZM6.49981 3.58439C7.82232 3.58439 8.89807 4.63545 8.89807 5.92761C8.89807 7.21869 7.82204 8.26975 6.49981 8.26975C5.17814 8.26975 4.10211 7.21869 4.10211 5.92761C4.10183 4.63518 5.17842 3.58439 6.49981 3.58439ZM12.7392 12.5545C13.2382 13.3294 12.9998 14.3529 12.2066 14.8405C11.1719 15.476 10.0348 15.9361 8.8432 16.2012L12.0807 19.3661C12.3995 19.6766 12.5787 20.0984 12.5787 20.5382C12.5787 20.9781 12.3995 21.3998 12.0807 21.7104C11.7628 22.0214 11.3314 22.1962 10.8816 22.1962C10.4317 22.1962 10.0003 22.0214 9.68245 21.7104L6.49929 18.6013L3.31806 21.7101C2.88941 22.1291 2.26455 22.2928 1.67887 22.1395C1.09319 21.9863 0.635659 21.5394 0.478631 20.9672C0.321604 20.3951 0.488934 19.7845 0.917588 19.3655L4.15565 16.2012C2.96431 15.9358 1.82739 15.4758 0.792824 14.8405C-5.35743e-05 14.3527 -0.238122 13.3292 0.261049 12.5545C0.500309 12.1819 0.881401 11.9176 1.32031 11.8198C1.75922 11.722 2.2199 11.7988 2.6008 12.0333C4.97189 13.4898 8.02613 13.4909 10.3992 12.0333C10.7801 11.7989 11.2408 11.7221 11.6798 11.8199C12.1187 11.9177 12.4998 12.1819 12.7392 12.5545Z" fill="black"/>
</svg>