<svg width="22" height="18" viewBox="0 0 22 18" fill="none" xmlns="http://www.w3.org/2000/svg">
<path fill-rule="evenodd" clip-rule="evenodd" d="M10.6823 4.97878L10.7299 5.74575L9.93513 5.65184C7.04202 5.29183 4.51452 4.07094 2.36854 2.02047L1.31939 1.00305L1.04915 1.75437C0.476886 3.42919 0.842499 5.19792 2.03472 6.3875C2.67056 7.04491 2.5275 7.13882 1.43066 6.74751C1.04915 6.62229 0.71533 6.52838 0.683537 6.57533C0.572264 6.6849 0.953773 8.10927 1.2558 8.67276C1.6691 9.45539 2.5116 10.2224 3.43358 10.6763L4.2125 11.0363L3.29052 11.0519C2.40033 11.0519 2.36854 11.0676 2.46391 11.3963C2.78184 12.4137 4.03764 13.4937 5.4365 13.9633L6.42207 14.292L5.56367 14.7929C4.29198 15.5129 2.79773 15.9199 1.30349 15.9512C0.58816 15.9668 0 16.0294 0 16.0764C0 16.2329 1.93934 17.1094 3.06797 17.4538C6.45386 18.4712 10.4756 18.0329 13.4959 16.2955C15.6419 15.059 17.7879 12.6015 18.7893 10.2224C19.3298 8.95451 19.8703 6.63794 19.8703 5.52662C19.8703 4.8066 19.918 4.71269 20.8081 3.8518C21.3327 3.35092 21.8255 2.80309 21.9209 2.64656C22.0798 2.34917 22.0639 2.34917 21.2532 2.61526C19.9021 3.08483 19.7113 3.02222 20.3789 2.31786C20.8717 1.81698 21.4599 0.90914 21.4599 0.643048C21.4599 0.596091 21.2214 0.674353 20.9512 0.815225C20.6651 0.97175 20.0292 1.20654 19.5523 1.34741L18.6939 1.6135L17.915 1.09697C17.4858 0.815225 16.8818 0.502176 16.5639 0.408261C15.7531 0.189127 14.5132 0.220431 13.782 0.470871C11.795 1.17523 10.5392 2.99092 10.6823 4.97878Z" fill="black"/>
</svg>