<svg width="24" height="15" viewBox="0 0 24 15" fill="none" xmlns="http://www.w3.org/2000/svg">
<path d="M23.0582 0.868936H19.1637C18.8398 0.868936 18.5421 1.05143 18.389 1.34383C18.389 1.34383 16.8357 4.27521 16.3367 5.26258C14.9944 7.91868 14.1253 7.08482 14.1253 5.85214V1.60171C14.1253 0.862113 13.5401 0.262487 12.8184 0.262487H9.89016C9.07937 0.200745 8.2952 0.573585 7.81774 1.24797C7.81774 1.24797 9.30462 1.00157 9.30462 3.05458C9.30462 3.5637 9.3302 5.02823 9.3535 6.25653C9.36254 6.62733 9.14489 6.96447 8.8084 7.10108C8.47196 7.23764 8.08804 7.14469 7.84681 6.86821C6.64826 5.16001 5.65543 3.30968 4.88996 1.35747C4.75575 1.05928 4.46431 0.868481 4.1438 0.868936H0.605351C0.407784 0.867571 0.222145 0.965756 0.108798 1.13154C-0.00454908 1.29738 -0.0311798 1.50972 0.0376163 1.6995C1.11206 4.71963 5.74043 14.2104 11.0233 14.2104H13.2468C13.732 14.2104 14.1253 13.8074 14.1253 13.3102V11.9344C14.1253 11.5816 14.3298 11.2626 14.6458 11.1225C14.9617 10.9825 15.3287 11.0482 15.5795 11.2897L18.241 13.8521C18.48 14.0823 18.7956 14.2104 19.1235 14.2104H22.6185C24.3041 14.2104 24.3041 13.0118 23.3851 12.0843C22.7383 11.4316 20.4044 8.91071 20.4044 8.91071C19.9914 8.47232 19.9521 7.79088 20.3117 7.30558C21.066 6.28826 22.2999 4.62304 22.8232 3.90965C23.5385 2.93457 24.8331 0.868936 23.0582 0.868936Z" fill="black"/>
</svg>